<svg xmlns="http://www.w3.org/2000/svg" id="b" width="962.397" height="166.815" viewBox="0 0 962.397 166.815"><defs><style>.d{fill:#eb3500;}.e{fill:#333;}</style></defs><g id="c"><g><path class="d" d="M.681,121.654l16.557-8.553c.32-.165,.702-.158,1.016,.021l56.833,32.371c.328,.187,.731,.186,1.058-.002l56.197-32.337c.34-.196,.76-.188,1.093,.019l15.001,9.327c.68,.423,.667,1.418-.024,1.823l-72.26,42.348c-.331,.194-.74,.195-1.072,.003L.636,123.521c-.728-.422-.702-1.481,.045-1.867Z"/><path class="d" d="M.577,82.495l16.642-9.379c.33-.186,.734-.183,1.061,.009l55.628,32.629c.33,.194,.739,.195,1.071,.004l56.502-32.635c.329-.19,.532-.542,.532-.922v-14.885c0-.824-.896-1.336-1.605-.917l-54.255,31.992c-.331,.195-.742,.197-1.075,.004L.531,45.184c-.705-.409-.708-1.425-.006-1.839L73.913,.147c.327-.193,.733-.196,1.063-.01l44.361,25.034c.693,.391,.728,1.376,.065,1.815l-15.321,10.146c-.341,.226-.782,.236-1.134,.026l-27.948-16.684c-.342-.204-.77-.2-1.108,.01l-36.74,22.865c-.676,.421-.668,1.408,.015,1.817l36.741,22.031c.33,.198,.742,.202,1.076,.011l56.515-32.354c.32-.183,.712-.188,1.036-.012l16.841,9.126c.343,.186,.557,.545,.557,.936v37.902c0,.375-.197,.722-.518,.914l-73.26,43.802c-.332,.199-.746,.201-1.08,.007L.565,84.343c-.713-.413-.706-1.444,.011-1.849Z"/></g><g><path class="e" d="M213.958,121.316c-4.283-1.819-7.579-4.394-9.889-7.73-2.313-3.334-3.467-7.236-3.467-11.708v-3.296c0-.757,.378-1.137,1.136-1.137h8.298c.756,0,1.137,.38,1.137,1.137v2.728c0,3.865,1.666,7.048,5.001,9.548,3.334,2.501,7.918,3.751,13.754,3.751,5.229,0,9.168-1.097,11.821-3.296,2.652-2.197,3.978-5.076,3.978-8.639,0-2.348-.682-4.356-2.046-6.024-1.364-1.666-3.353-3.201-5.967-4.604-2.614-1.401-6.422-3.087-11.424-5.058-5.532-2.12-9.908-4.053-13.128-5.797-3.222-1.743-5.893-4.035-8.014-6.877-2.123-2.842-3.183-6.422-3.183-10.742,0-6.516,2.33-11.631,6.99-15.345,4.66-3.712,10.969-5.57,18.926-5.57,5.607,0,10.532,.949,14.777,2.842,4.243,1.895,7.52,4.547,9.832,7.956,2.311,3.41,3.467,7.351,3.467,11.821v2.273c0,.758-.38,1.137-1.136,1.137h-8.525c-.758,0-1.137-.378-1.137-1.137v-1.705c0-3.939-1.574-7.218-4.717-9.833-3.146-2.614-7.484-3.922-13.015-3.922-4.699,0-8.337,.966-10.912,2.899-2.577,1.932-3.865,4.717-3.865,8.355,0,2.501,.643,4.547,1.932,6.138,1.288,1.592,3.201,3.013,5.74,4.263,2.538,1.25,6.422,2.861,11.651,4.831,5.38,2.122,9.736,4.074,13.072,5.854,3.334,1.782,6.099,4.131,8.298,7.048,2.197,2.918,3.296,6.536,3.296,10.855,0,6.669-2.444,11.955-7.331,15.857-4.888,3.904-11.614,5.854-20.176,5.854-5.836,0-10.895-.909-15.175-2.728Z"/><path class="e" d="M333.025,53.002h-40.353c-.304,0-.455,.152-.455,.454v24.439c0,.304,.152,.454,.455,.454h27.735c.757,0,1.137,.381,1.137,1.137v7.161c0,.758-.381,1.137-1.137,1.137h-27.735c-.304,0-.455,.153-.455,.454v25.007c0,.304,.152,.455,.455,.455h40.353c.755,0,1.135,.38,1.135,1.136v7.161c0,.758-.381,1.137-1.135,1.137h-50.583c-.758,0-1.136-.378-1.136-1.137V44.704c0-.756,.378-1.137,1.136-1.137h50.583c.755,0,1.135,.381,1.135,1.137v7.161c0,.758-.381,1.137-1.135,1.137Z"/><path class="e" d="M406.112,122.225l-4.092-13.299c-.076-.227-.228-.341-.454-.341h-31.941c-.228,0-.381,.114-.454,.341l-4.092,13.299c-.228,.607-.682,.909-1.364,.909h-9.208c-.834,0-1.136-.415-.909-1.25l24.893-77.408c.228-.606,.682-.91,1.364-.91h11.367c.682,0,1.136,.304,1.364,.91l25.12,77.408,.113,.454c0,.531-.341,.796-1.022,.796h-9.321c-.682,0-1.137-.302-1.364-.909Zm-34.044-22.449c.114,.113,.245,.171,.398,.171h26.143c.151,0,.285-.057,.398-.171,.113-.114,.131-.245,.057-.398l-13.186-42.171c-.077-.151-.19-.227-.341-.227-.153,0-.267,.076-.341,.227l-13.186,42.171c-.077,.153-.057,.284,.056,.398Z"/><path class="e" d="M484.77,122.339l-15.914-33.986c-.077-.227-.228-.341-.454-.341h-16.369c-.304,0-.454,.153-.454,.455v33.532c0,.758-.379,1.137-1.136,1.137h-8.639c-.758,0-1.136-.378-1.136-1.137V44.704c0-.756,.378-1.137,1.136-1.137h30.577c4.547,0,8.543,.949,11.992,2.842,3.448,1.895,6.119,4.547,8.014,7.957,1.892,3.41,2.842,7.351,2.842,11.821,0,5.305-1.384,9.795-4.149,13.47-2.767,3.676-6.611,6.158-11.537,7.445-.305,.153-.381,.341-.228,.568l16.481,34.1c.075,.153,.114,.341,.114,.568,0,.531-.304,.796-.91,.796h-8.98c-.607,0-1.023-.265-1.25-.796Zm-33.192-68.883v25.462c0,.304,.151,.454,.454,.454h18.983c4.015,0,7.235-1.194,9.662-3.58,2.425-2.387,3.637-5.55,3.637-9.491,0-4.015-1.212-7.236-3.637-9.661-2.427-2.425-5.647-3.637-9.662-3.637h-18.983c-.304,0-.454,.152-.454,.454Z"/><path class="e" d="M531.314,120.918c-4.206-2.159-7.465-5.229-9.775-9.207-2.312-3.978-3.466-8.543-3.466-13.697v-29.44c0-5.152,1.154-9.68,3.466-13.583,2.31-3.902,5.57-6.934,9.775-9.093,4.206-2.16,9.037-3.24,14.492-3.24s10.268,1.043,14.436,3.126c4.166,2.085,7.406,5.021,9.718,8.809,2.311,3.79,3.467,8.184,3.467,13.186v.113c0,.38-.114,.682-.341,.91-.228,.227-.494,.341-.796,.341l-8.638,.454c-.759,0-1.137-.341-1.137-1.023v-.341c0-4.849-1.516-8.752-4.547-11.708-3.032-2.955-7.087-4.433-12.162-4.433s-9.149,1.478-12.219,4.433-4.604,6.859-4.604,11.708v30.236c0,4.851,1.535,8.752,4.604,11.708s7.142,4.433,12.219,4.433,9.131-1.478,12.162-4.433c3.031-2.955,4.547-6.857,4.547-11.708v-.227c0-.682,.378-1.023,1.137-1.023l8.638,.455c.757,0,1.137,.38,1.137,1.136,0,5.002-1.156,9.417-3.467,13.242-2.312,3.828-5.552,6.802-9.718,8.923-4.168,2.122-8.98,3.183-14.436,3.183s-10.287-1.08-14.492-3.24Z"/><path class="e" d="M644.471,43.567h8.639c.757,0,1.136,.381,1.136,1.137V121.998c0,.758-.379,1.137-1.136,1.137h-8.639c-.758,0-1.136-.378-1.136-1.137v-33.759c0-.302-.153-.454-.454-.454h-32.396c-.304,0-.454,.153-.454,.454v33.759c0,.758-.379,1.137-1.136,1.137h-8.639c-.758,0-1.136-.378-1.136-1.137V44.704c0-.756,.378-1.137,1.136-1.137h8.639c.757,0,1.136,.381,1.136,1.137v33.191c0,.304,.151,.454,.454,.454h32.396c.302,0,.454-.151,.454-.454V44.704c0-.756,.378-1.137,1.136-1.137Z"/><path class="e" d="M691.698,121.316c-4.282-1.819-7.578-4.394-9.889-7.73-2.312-3.334-3.467-7.236-3.467-11.708v-3.296c0-.757,.378-1.137,1.137-1.137h8.297c.757,0,1.137,.38,1.137,1.137v2.728c0,3.865,1.666,7.048,5.001,9.548,3.333,2.501,7.917,3.751,13.754,3.751,5.229,0,9.168-1.097,11.821-3.296,2.651-2.197,3.978-5.076,3.978-8.639,0-2.348-.682-4.356-2.046-6.024-1.364-1.666-3.353-3.201-5.967-4.604-2.615-1.401-6.422-3.087-11.424-5.058-5.532-2.12-9.908-4.053-13.128-5.797-3.222-1.743-5.893-4.035-8.014-6.877-2.122-2.842-3.183-6.422-3.183-10.742,0-6.516,2.33-11.631,6.991-15.345,4.66-3.712,10.969-5.57,18.926-5.57,5.607,0,10.532,.949,14.776,2.842,4.243,1.895,7.52,4.547,9.833,7.956,2.31,3.41,3.467,7.351,3.467,11.821v2.273c0,.758-.381,1.137-1.137,1.137h-8.525c-.759,0-1.137-.378-1.137-1.137v-1.705c0-3.939-1.573-7.218-4.717-9.833-3.145-2.614-7.484-3.922-13.015-3.922-4.698,0-8.336,.966-10.912,2.899-2.577,1.932-3.865,4.717-3.865,8.355,0,2.501,.643,4.547,1.933,6.138,1.287,1.592,3.2,3.013,5.74,4.263,2.538,1.25,6.422,2.861,11.651,4.831,5.379,2.122,9.736,4.074,13.071,5.854,3.334,1.782,6.099,4.131,8.298,7.048,2.197,2.918,3.296,6.536,3.296,10.855,0,6.669-2.443,11.955-7.331,15.857-4.888,3.904-11.614,5.854-20.177,5.854-5.836,0-10.894-.909-15.175-2.728Z"/><path class="e" d="M808.834,44.704v7.275c0,.758-.381,1.136-1.137,1.136h-21.824c-.304,0-.454,.153-.454,.455V121.998c0,.758-.379,1.137-1.136,1.137h-8.639c-.758,0-1.136-.378-1.136-1.137V53.57c0-.302-.153-.455-.455-.455h-20.8c-.759,0-1.137-.378-1.137-1.136v-7.275c0-.756,.378-1.137,1.137-1.137h54.446c.757,0,1.137,.381,1.137,1.137Z"/><path class="e" d="M872.487,122.225l-4.092-13.299c-.076-.227-.228-.341-.454-.341h-31.941c-.228,0-.381,.114-.454,.341l-4.092,13.299c-.228,.607-.682,.909-1.364,.909h-9.208c-.834,0-1.136-.415-.909-1.25l24.893-77.408c.228-.606,.682-.91,1.364-.91h11.367c.682,0,1.136,.304,1.364,.91l25.12,77.408,.113,.454c0,.531-.341,.796-1.022,.796h-9.321c-.682,0-1.137-.302-1.364-.909Zm-34.044-22.449c.114,.113,.245,.171,.398,.171h26.143c.151,0,.285-.057,.398-.171,.113-.114,.131-.245,.057-.398l-13.186-42.171c-.077-.151-.19-.227-.341-.227-.153,0-.267,.076-.341,.227l-13.186,42.171c-.077,.153-.057,.284,.056,.398Z"/><path class="e" d="M901.698,122.737c-.152-.265-.113-.586,.114-.966l23.415-38.079c.151-.227,.151-.454,0-.682l-23.415-38.079c-.153-.302-.228-.529-.228-.682,0-.454,.341-.682,1.023-.682h9.434c.529,0,.985,.267,1.364,.796l18.301,30.122c.074,.076,.188,.114,.341,.114,.151,0,.264-.037,.341-.114l18.3-30.122c.378-.529,.833-.796,1.364-.796h9.321c.454,0,.757,.134,.91,.398,.151,.266,.113,.588-.114,.966l-23.302,38.193c-.076,.227-.076,.455,0,.682l23.302,37.965c.152,.304,.228,.531,.228,.682,0,.455-.341,.682-1.023,.682h-9.321c-.531,0-.986-.265-1.364-.796l-18.3-30.008c-.077-.151-.19-.227-.341-.227-.153,0-.267,.076-.341,.227l-18.301,30.008c-.379,.531-.835,.796-1.364,.796h-9.434c-.454,0-.758-.132-.91-.398Z"/></g></g></svg>